<mxfile host="app.diagrams.net" agent="Mozilla/5.0 (Windows NT 10.0; Win64; x64) AppleWebKit/537.36 (KHTML, like Gecko) Chrome/131.0.0.0 Safari/537.36 Edg/131.0.0.0" version="24.9.3">
  <diagram name="Страница — 1" id="LnCkv36wJXgLS0YKFTVz">
    <mxGraphModel dx="304" dy="595" grid="1" gridSize="10" guides="1" tooltips="1" connect="1" arrows="1" fold="1" page="1" pageScale="1" pageWidth="1169" pageHeight="827" math="0" shadow="0">
      <root>
        <mxCell id="0" />
        <mxCell id="1" parent="0" />
        <mxCell id="xRowAdIQk2iJQzRJVS80-1" value="Параметры транслятора" style="text;html=1;align=center;verticalAlign=middle;resizable=0;points=[];autosize=1;strokeColor=none;fillColor=none;fontSize=17;fontFamily=Times New Roman;" parent="1" vertex="1">
          <mxGeometry x="390" y="45" width="200" height="30" as="geometry" />
        </mxCell>
        <mxCell id="xRowAdIQk2iJQzRJVS80-28" style="edgeStyle=orthogonalEdgeStyle;rounded=0;orthogonalLoop=1;jettySize=auto;html=1;exitX=1;exitY=0.5;exitDx=0;exitDy=0;entryX=0;entryY=0.5;entryDx=0;entryDy=0;fontFamily=Times New Roman;fontSize=17;" parent="1" source="xRowAdIQk2iJQzRJVS80-2" target="xRowAdIQk2iJQzRJVS80-4" edge="1">
          <mxGeometry relative="1" as="geometry" />
        </mxCell>
        <mxCell id="xRowAdIQk2iJQzRJVS80-2" value="Исходный код" style="ellipse;whiteSpace=wrap;html=1;fontSize=18;fontFamily=Times New Roman;" parent="1" vertex="1">
          <mxGeometry y="170" width="160" height="50" as="geometry" />
        </mxCell>
        <mxCell id="xRowAdIQk2iJQzRJVS80-27" style="edgeStyle=orthogonalEdgeStyle;rounded=0;orthogonalLoop=1;jettySize=auto;html=1;exitX=1;exitY=0.5;exitDx=0;exitDy=0;entryX=0;entryY=0.5;entryDx=0;entryDy=0;fontFamily=Times New Roman;fontSize=17;" parent="1" source="xRowAdIQk2iJQzRJVS80-4" target="xRowAdIQk2iJQzRJVS80-15" edge="1">
          <mxGeometry relative="1" as="geometry" />
        </mxCell>
        <mxCell id="xRowAdIQk2iJQzRJVS80-4" value="ТРАНСЛЯТОР" style="rounded=0;whiteSpace=wrap;html=1;fontSize=17;fontFamily=Times New Roman;fontStyle=1;labelPosition=center;verticalLabelPosition=middle;align=center;verticalAlign=middle;spacingBottom=110;" parent="1" vertex="1">
          <mxGeometry x="200" y="120" width="580" height="150" as="geometry" />
        </mxCell>
        <mxCell id="xRowAdIQk2iJQzRJVS80-5" value="Протоколы работы транслятора" style="text;html=1;align=center;verticalAlign=middle;resizable=0;points=[];autosize=1;strokeColor=none;fillColor=none;fontSize=17;fontFamily=Times New Roman;" parent="1" vertex="1">
          <mxGeometry x="365" y="325" width="250" height="30" as="geometry" />
        </mxCell>
        <mxCell id="xRowAdIQk2iJQzRJVS80-29" style="edgeStyle=orthogonalEdgeStyle;rounded=0;orthogonalLoop=1;jettySize=auto;html=1;exitX=0.5;exitY=1;exitDx=0;exitDy=0;strokeWidth=2;fontFamily=Times New Roman;fontSize=17;" parent="1" edge="1">
          <mxGeometry relative="1" as="geometry">
            <mxPoint x="390" y="325" as="targetPoint" />
            <Array as="points">
              <mxPoint x="275" y="295" />
              <mxPoint x="390" y="295" />
            </Array>
            <mxPoint x="275" y="265" as="sourcePoint" />
          </mxGeometry>
        </mxCell>
        <mxCell id="xRowAdIQk2iJQzRJVS80-11" value="&lt;font&gt;Лексический анализатор&lt;/font&gt;" style="rounded=0;whiteSpace=wrap;html=1;fontSize=17;fontFamily=Times New Roman;" parent="1" vertex="1">
          <mxGeometry x="210" y="160" width="130" height="100" as="geometry" />
        </mxCell>
        <mxCell id="xRowAdIQk2iJQzRJVS80-15" value="Ассемблерный код" style="ellipse;whiteSpace=wrap;html=1;fontSize=17;fontFamily=Times New Roman;" parent="1" vertex="1">
          <mxGeometry x="820" y="170" width="160" height="50" as="geometry" />
        </mxCell>
        <mxCell id="xRowAdIQk2iJQzRJVS80-30" value="" style="edgeStyle=orthogonalEdgeStyle;rounded=0;orthogonalLoop=1;jettySize=auto;html=1;strokeWidth=2;fontFamily=Times New Roman;fontSize=17;" parent="1" source="xRowAdIQk2iJQzRJVS80-20" target="xRowAdIQk2iJQzRJVS80-5" edge="1">
          <mxGeometry relative="1" as="geometry">
            <Array as="points">
              <mxPoint x="415" y="310" />
              <mxPoint x="415" y="310" />
            </Array>
          </mxGeometry>
        </mxCell>
        <mxCell id="xRowAdIQk2iJQzRJVS80-20" value="&lt;font&gt;Синтаксический анализатор&lt;/font&gt;" style="rounded=0;whiteSpace=wrap;html=1;fontSize=17;fontFamily=Times New Roman;" parent="1" vertex="1">
          <mxGeometry x="350" y="160" width="130" height="100" as="geometry" />
        </mxCell>
        <mxCell id="xRowAdIQk2iJQzRJVS80-21" value="&lt;font&gt;Семантический анализатор&lt;/font&gt;" style="rounded=0;whiteSpace=wrap;html=1;fontSize=17;fontFamily=Times New Roman;" parent="1" vertex="1">
          <mxGeometry x="490" y="160" width="130" height="100" as="geometry" />
        </mxCell>
        <mxCell id="xRowAdIQk2iJQzRJVS80-22" value="Генератор кода" style="rounded=0;whiteSpace=wrap;html=1;fontSize=17;fontFamily=Times New Roman;" parent="1" vertex="1">
          <mxGeometry x="630" y="160" width="140" height="100" as="geometry" />
        </mxCell>
        <mxCell id="xRowAdIQk2iJQzRJVS80-32" style="edgeStyle=orthogonalEdgeStyle;rounded=0;orthogonalLoop=1;jettySize=auto;html=1;exitX=0.5;exitY=1;exitDx=0;exitDy=0;entryX=0.838;entryY=-0.018;entryDx=0;entryDy=0;entryPerimeter=0;strokeWidth=2;fontFamily=Times New Roman;fontSize=17;" parent="1" source="xRowAdIQk2iJQzRJVS80-22" target="xRowAdIQk2iJQzRJVS80-5" edge="1">
          <mxGeometry relative="1" as="geometry" />
        </mxCell>
        <mxCell id="xRowAdIQk2iJQzRJVS80-34" value="" style="endArrow=classic;html=1;rounded=0;entryX=0.5;entryY=0;entryDx=0;entryDy=0;exitX=0.5;exitY=1;exitDx=0;exitDy=0;exitPerimeter=0;strokeWidth=2;fontFamily=Times New Roman;fontSize=17;" parent="1" source="xRowAdIQk2iJQzRJVS80-1" target="xRowAdIQk2iJQzRJVS80-4" edge="1">
          <mxGeometry width="50" height="50" relative="1" as="geometry">
            <mxPoint x="490" y="100" as="sourcePoint" />
            <mxPoint x="530" y="70" as="targetPoint" />
          </mxGeometry>
        </mxCell>
        <mxCell id="tuz9g__6UU8fTgkN5ugv-3" value="" style="edgeStyle=orthogonalEdgeStyle;rounded=0;orthogonalLoop=1;jettySize=auto;html=1;strokeWidth=2;fontFamily=Times New Roman;fontSize=17;" edge="1" parent="1">
          <mxGeometry relative="1" as="geometry">
            <Array as="points">
              <mxPoint x="554.9000000000001" y="310" />
              <mxPoint x="554.9000000000001" y="310" />
            </Array>
            <mxPoint x="554.9000000000001" y="260" as="sourcePoint" />
            <mxPoint x="554.9000000000001" y="325" as="targetPoint" />
          </mxGeometry>
        </mxCell>
      </root>
    </mxGraphModel>
  </diagram>
</mxfile>
